<svg version="1.1" id="Layer_1" xmlns="http://www.w3.org/2000/svg" xmlns:xlink="http://www.w3.org/1999/xlink" x="0px" y="0px"
	 width="100%" viewBox="0 0 200 105" enable-background="new 0 0 200 105" xml:space="preserve">
<path fill="#000000" opacity="1.000000" stroke="none" 
	d="
M4.000000,1.000000 
	C69.542618,1.000000 135.085236,1.000000 201.000000,1.000000 
	C201.000000,12.351517 201.000000,23.707100 200.531342,35.531311 
	C151.411209,36.000465 102.759727,35.986839 54.108337,36.050991 
	C52.071301,36.053680 50.035217,36.781441 47.632717,37.102978 
	C46.521721,37.024933 45.776695,37.015320 44.995232,36.743324 
	C44.894016,36.316643 44.829243,36.152351 44.728065,35.768970 
	C44.456772,35.278378 44.187012,35.237904 43.627705,35.248516 
	C43.104969,34.751213 42.836910,34.433857 42.498703,33.841389 
	C41.628567,33.024788 40.828583,32.483295 39.882622,31.638268 
	C35.841568,28.524031 31.946487,25.713331 27.911896,22.600941 
	C25.849194,20.924948 23.926004,19.550652 21.691540,18.010374 
	C15.703788,13.146965 10.027313,8.449535 4.293552,3.538716 
	C4.236266,3.325326 4.076381,2.913375 4.063253,2.594657 
	C4.033417,1.850626 4.016709,1.425313 4.000000,1.000000 
z"/>
<path fill="#017A3D" opacity="1.000000" stroke="none" 
	d="
M201.000000,72.000000 
	C201.000000,83.311737 201.000000,94.623474 201.000000,106.000000 
	C135.979126,106.000000 70.958214,106.000000 5.469039,105.589806 
	C4.930461,104.363235 4.860158,103.546867 4.986425,102.447899 
	C12.975330,96.102234 20.738897,90.001701 28.569521,83.988480 
	C34.348850,79.550484 40.215652,75.226395 46.276894,70.925163 
	C46.510315,70.998779 46.968472,71.170647 47.280231,71.418884 
	C52.864723,71.775696 58.137405,71.975433 63.410198,71.978554 
	C109.273453,72.005707 155.136734,71.997612 201.000000,72.000000 
z"/>
<path fill="#FFFFFF" opacity="1.000000" stroke="none" 
	d="
M47.998692,37.171410 
	C50.035217,36.781441 52.071301,36.053680 54.108337,36.050991 
	C102.759727,35.986839 151.411209,36.000465 200.531342,35.999969 
	C201.000000,46.020893 201.000000,56.041790 200.531342,66.531342 
	C154.374863,67.000648 108.687042,67.001297 62.555161,67.001251 
	C59.741039,67.001091 57.370975,67.001617 55.149506,66.696854 
	C57.778919,64.196068 60.435059,62.162083 62.668179,59.738354 
	C63.821453,58.486645 64.223419,56.542709 65.002930,54.689835 
	C65.041016,54.468132 65.122505,54.025311 65.345100,53.954346 
	C65.887024,53.702087 66.002853,53.432983 65.936951,52.686111 
	C66.606636,47.639484 61.795479,46.903568 60.285034,43.965446 
	C60.891117,43.625015 61.213230,43.320133 61.535343,43.015251 
	C61.325912,42.833687 61.116478,42.652122 60.907043,42.470558 
	C60.604362,42.980019 60.301682,43.489475 59.551041,44.000042 
	C57.908501,44.060951 56.713917,44.120754 55.211922,44.062340 
	C52.602573,41.686554 50.300632,39.428982 47.998692,37.171410 
z"/>
<path fill="#CD1127" opacity="1.000000" stroke="none" 
	d="
M47.632717,37.102982 
	C50.300632,39.428982 52.602573,41.686554 55.393127,44.376640 
	C57.593006,46.874538 59.304264,48.939922 60.683670,51.016052 
	C57.793732,51.070892 56.758457,51.803745 58.829536,54.215775 
	C58.431679,55.603619 58.203121,56.793858 57.990398,58.281380 
	C58.020470,58.776630 58.034706,58.974590 57.955280,59.439308 
	C57.268986,60.153580 56.676346,60.601097 55.669159,61.032532 
	C52.301395,60.843536 49.657215,61.061012 50.024677,65.477898 
	C48.673729,67.502258 47.358601,69.176903 46.043476,70.851547 
	C40.215652,75.226395 34.348850,79.550484 28.569521,83.988480 
	C20.738897,90.001701 12.975330,96.102234 4.703665,102.603271 
	C3.149557,103.694160 2.074779,104.347076 1.000000,105.000000 
	C1.000000,102.299988 1.000000,99.599968 1.375666,96.407822 
	C5.101782,94.765015 9.435883,94.822685 9.839130,88.136269 
	C6.303704,90.081635 3.651852,91.540817 1.000000,93.000000 
	C1.000000,91.933327 1.000000,90.866661 1.343162,89.345802 
	C2.726316,87.615318 3.766308,86.339020 4.806301,85.062721 
	C3.537534,84.375145 2.268767,83.687576 1.000000,83.000000 
	C1.000000,56.979103 1.000000,30.958210 1.420207,4.466666 
	C2.677222,3.914714 3.514031,3.833410 4.350839,3.752106 
	C10.027313,8.449535 15.703788,13.146965 21.680756,18.369383 
	C21.335140,20.286243 20.689030,21.678116 20.020607,23.118061 
	C22.566179,24.572771 24.814455,25.857588 26.712364,26.942179 
	C27.297108,25.178158 27.674257,24.040396 28.051407,22.902634 
	C31.946487,25.713331 35.841568,28.524031 39.894447,31.965538 
	C40.891117,33.103065 41.729988,33.609783 42.568855,34.116501 
	C42.836910,34.433857 43.104969,34.751213 43.630013,35.386482 
	C43.886997,35.704391 43.925205,35.978691 44.037323,36.218403 
	C44.443516,36.640644 44.737595,36.823174 45.031673,37.005707 
	C45.776695,37.015320 46.521721,37.024933 47.632717,37.102982 
M41.519016,37.411953 
	C41.519016,37.411953 41.587627,37.523815 41.519016,37.411953 
z"/>
<path fill="#FEFFFA" opacity="1.000000" stroke="none" 
	d="
M62.999218,67.001945 
	C108.687042,67.001297 154.374863,67.000648 200.531342,67.000000 
	C201.000000,67.750000 201.000000,68.500000 200.531342,69.624664 
	C154.710815,69.991867 109.358940,69.984398 63.979439,69.660721 
	C63.634277,68.563652 63.316750,67.782799 62.999218,67.001945 
z"/>
<path fill="#0B6436" opacity="1.000000" stroke="none" 
	d="
M201.000000,71.750000 
	C155.136734,71.997612 109.273453,72.005707 63.410198,71.978554 
	C58.137405,71.975433 52.864723,71.775696 47.615093,71.342514 
	C48.088882,70.954460 48.539566,70.891014 49.453896,70.904518 
	C100.278358,70.987640 150.639175,70.993820 201.000000,71.000000 
	C201.000000,71.000000 201.000000,71.500000 201.000000,71.750000 
z"/>
<path fill="#DEFEE7" opacity="1.000000" stroke="none" 
	d="
M201.000000,70.750000 
	C150.639175,70.993820 100.278358,70.987640 49.684719,70.673904 
	C50.304733,70.238716 51.157574,70.111092 52.383331,69.989777 
	C53.502598,69.995071 54.248947,69.994064 55.445694,69.995522 
	C58.599754,69.990974 61.303413,69.983948 64.007072,69.976929 
	C109.358940,69.984398 154.710815,69.991867 200.531342,69.999664 
	C201.000000,70.000000 201.000000,70.500000 201.000000,70.750000 
z"/>
<path fill="#C71429" opacity="1.000000" stroke="none" 
	d="
M1.000000,93.375000 
	C3.651852,91.540817 6.303704,90.081635 9.839130,88.136269 
	C9.435883,94.822685 5.101782,94.765015 1.375666,95.957840 
	C1.000000,95.250000 1.000000,94.500000 1.000000,93.375000 
z"/>
<path fill="#C71429" opacity="1.000000" stroke="none" 
	d="
M1.000000,83.428467 
	C2.268767,83.687576 3.537534,84.375145 4.806301,85.062721 
	C3.766308,86.339020 2.726316,87.615318 1.343162,88.945808 
	C1.000000,87.285645 1.000000,85.571281 1.000000,83.428467 
z"/>
<path fill="#376138" opacity="1.000000" stroke="none" 
	d="
M1.000000,105.500000 
	C2.074779,104.347076 3.149557,103.694160 4.507096,102.885864 
	C4.860158,103.546867 4.930461,104.363235 5.000381,105.589806 
	C3.666667,106.000000 2.333333,106.000000 1.000000,105.500000 
z"/>
<path fill="#A21F2E" opacity="1.000000" stroke="none" 
	d="
M4.293552,3.538716 
	C3.514031,3.833410 2.677222,3.914714 1.420207,3.998009 
	C1.000000,3.555556 1.000000,3.111111 1.327190,2.315259 
	C2.461714,2.280359 3.269048,2.596867 4.076381,2.913375 
	C4.076381,2.913375 4.236266,3.325326 4.293552,3.538716 
z"/>
<path fill="#3F0002" opacity="1.000000" stroke="none" 
	d="
M4.063253,2.594657 
	C3.269048,2.596867 2.461714,2.280359 1.327190,1.981925 
	C1.666667,1.666667 2.333333,1.333333 3.500000,1.000000 
	C4.016709,1.425313 4.033417,1.850626 4.063253,2.594657 
z"/>
<path fill="#D20F2E" opacity="1.000000" stroke="none" 
	d="
M27.911896,22.600941 
	C27.674257,24.040396 27.297108,25.178158 26.712364,26.942179 
	C24.814455,25.857588 22.566179,24.572771 20.020607,23.118061 
	C20.689030,21.678116 21.335140,20.286243 21.992031,18.535362 
	C23.926004,19.550652 25.849194,20.924948 27.911896,22.600941 
z"/>
<path fill="#A11827" opacity="1.000000" stroke="none" 
	d="
M42.498703,33.841389 
	C41.729988,33.609783 40.891117,33.103065 40.040424,32.269077 
	C40.828583,32.483295 41.628567,33.024788 42.498703,33.841389 
z"/>
<path fill="#9F1D31" opacity="1.000000" stroke="none" 
	d="
M44.995232,36.743320 
	C44.737595,36.823174 44.443516,36.640644 44.247581,36.223148 
	C44.345726,35.988182 44.764469,35.988056 44.764469,35.988056 
	C44.829243,36.152351 44.894016,36.316643 44.995232,36.743320 
z"/>
<path fill="#A11827" opacity="1.000000" stroke="none" 
	d="
M44.728065,35.768970 
	C44.764469,35.988056 44.345726,35.988182 44.135468,35.983437 
	C43.925205,35.978691 43.886997,35.704391 43.884689,35.566429 
	C44.187012,35.237904 44.456772,35.278378 44.728065,35.768970 
z"/>
<path fill="#FEF4F3" opacity="1.000000" stroke="none" 
	d="
M52.010410,69.983467 
	C51.157574,70.111092 50.304733,70.238716 49.221077,70.596954 
	C48.539566,70.891014 48.088882,70.954460 47.303333,71.094276 
	C46.968472,71.170647 46.510315,70.998779 46.276894,70.925163 
	C47.358601,69.176903 48.673729,67.502258 50.376877,65.449829 
	C52.537834,63.730904 54.310772,62.389759 56.083706,61.048615 
	C56.676346,60.601097 57.268986,60.153580 58.275307,59.367294 
	C59.484558,58.367245 60.280128,57.705967 61.043213,57.023705 
	C61.010731,57.002724 61.042736,57.073124 61.346573,56.985508 
	C62.443275,56.295254 63.236134,55.692612 64.264282,55.052353 
	C64.499580,55.014732 64.964836,54.911537 64.964836,54.911537 
	C64.223419,56.542709 63.821453,58.486645 62.668179,59.738354 
	C60.435059,62.162083 57.778919,64.196068 55.149048,66.695786 
	C55.000000,67.000000 55.001827,67.000916 54.631054,67.009476 
	C53.510323,68.006516 52.760365,68.994995 52.010410,69.983467 
z"/>
<path fill="#FCF4F3" opacity="1.000000" stroke="none" 
	d="
M61.015526,51.005310 
	C59.304264,48.939922 57.593006,46.874538 55.700539,44.494850 
	C56.713917,44.120754 57.908501,44.060951 59.551544,44.000576 
	C60.000000,44.000000 60.001068,44.000999 60.001068,44.000999 
	C61.795479,46.903568 66.606636,47.639484 65.734711,52.672264 
	C65.510712,53.048374 65.107407,52.998947 65.019608,52.741989 
	C64.621323,52.380066 64.310852,52.275105 63.677231,52.091087 
	C62.910954,51.993736 62.467823,51.975449 61.937626,51.723972 
	C61.652534,51.190800 61.374191,51.028976 61.015526,51.005310 
z"/>
<path fill="#F5FEF8" opacity="1.000000" stroke="none" 
	d="
M63.979439,69.660721 
	C61.303413,69.983948 58.599754,69.990974 55.350185,69.745506 
	C54.870129,68.662315 54.935978,67.831619 55.001827,67.000916 
	C55.001827,67.000916 55.000000,67.000000 55.000458,67.001068 
	C57.370975,67.001617 59.741039,67.001091 62.555161,67.001251 
	C63.316750,67.782799 63.634277,68.563652 63.979439,69.660721 
z"/>
<path fill="#FCF4F3" opacity="1.000000" stroke="none" 
	d="
M59.999500,43.999466 
	C60.301682,43.489475 60.604362,42.980019 60.907043,42.470558 
	C61.116478,42.652122 61.325912,42.833687 61.535343,43.015251 
	C61.213230,43.320133 60.891117,43.625015 60.285034,43.965446 
	C60.001068,44.000999 60.000000,44.000000 59.999500,43.999466 
z"/>
<path fill="#9F1933" opacity="1.000000" stroke="none" 
	d="
M64.000374,52.170143 
	C64.310852,52.275105 64.621323,52.380066 65.014420,52.998199 
	C65.105515,53.682678 65.114006,53.853992 65.122505,54.025311 
	C65.122505,54.025311 65.041016,54.468132 65.002930,54.689835 
	C64.964836,54.911537 64.499580,55.014732 64.256836,54.687374 
	C64.009521,53.630058 64.004944,52.900101 64.000374,52.170143 
z"/>
<path fill="#BC1432" opacity="1.000000" stroke="none" 
	d="
M65.345100,53.954346 
	C65.114006,53.853992 65.105515,53.682678 65.102219,53.255157 
	C65.107407,52.998947 65.510712,53.048374 65.712952,53.062218 
	C66.002853,53.432983 65.887024,53.702087 65.345100,53.954346 
z"/>
<path fill="#D72239" opacity="1.000000" stroke="none" 
	d="
M55.669159,61.032532 
	C54.310772,62.389759 52.537834,63.730904 50.412697,65.100113 
	C49.657215,61.061012 52.301395,60.843536 55.669159,61.032532 
z"/>
<path fill="#D9102F" opacity="1.000000" stroke="none" 
	d="
M57.974564,57.984093 
	C58.203121,56.793858 58.431679,55.603619 59.158615,54.205200 
	C60.095806,53.991211 60.534615,53.985409 60.985603,54.366600 
	C61.012768,55.526772 61.027752,56.299946 61.042736,57.073124 
	C61.042736,57.073124 61.010731,57.002724 60.697746,57.006657 
	C59.581360,57.335091 58.777962,57.659595 57.974564,57.984093 
z"/>
<path fill="#B90116" opacity="1.000000" stroke="none" 
	d="
M60.973423,53.979607 
	C60.534615,53.985409 60.095806,53.991211 59.327919,54.007587 
	C56.758457,51.803745 57.793732,51.070892 60.683670,51.016052 
	C61.374191,51.028976 61.652534,51.190800 61.915524,51.964924 
	C61.980488,52.439064 61.971703,52.923046 61.751453,53.042221 
	C61.349667,53.433228 61.168129,53.705055 60.991386,53.985748 
	C60.996181,53.994606 60.973423,53.979603 60.973423,53.979607 
z"/>
<path fill="#BC1432" opacity="1.000000" stroke="none" 
	d="
M57.990398,58.281380 
	C58.777962,57.659595 59.581360,57.335091 60.730228,57.027637 
	C60.280128,57.705967 59.484558,58.367245 58.368965,59.100540 
	C58.034706,58.974590 58.020470,58.776630 57.990398,58.281380 
z"/>
<path fill="#C82135" opacity="1.000000" stroke="none" 
	d="
M41.553322,37.467884 
	C41.587627,37.523815 41.519016,37.411953 41.553322,37.467884 
z"/>
<path fill="#FFFFFF" opacity="1.000000" stroke="none" 
	d="
M54.631054,67.009476 
	C54.935978,67.831619 54.870129,68.662315 54.899784,69.743034 
	C54.248947,69.994064 53.502598,69.995071 52.383331,69.989777 
	C52.760365,68.994995 53.510323,68.006516 54.631054,67.009476 
z"/>
<path fill="#BC1432" opacity="1.000000" stroke="none" 
	d="
M61.971703,52.923046 
	C61.971703,52.923046 61.980488,52.439064 62.002590,52.198112 
	C62.467823,51.975449 62.910954,51.993736 63.677231,52.091087 
	C64.004944,52.900101 64.009521,53.630058 64.021545,54.724991 
	C63.236134,55.692612 62.443275,56.295254 61.346573,56.985508 
	C61.027752,56.299946 61.012768,55.526772 60.985603,54.366600 
	C60.973423,53.979603 60.996181,53.994606 61.222420,53.882118 
	C61.623001,53.487438 61.797352,53.205242 61.971703,52.923046 
z"/>
<path fill="#D9102F" opacity="1.000000" stroke="none" 
	d="
M61.751453,53.042221 
	C61.797352,53.205242 61.623001,53.487438 61.217621,53.873260 
	C61.168129,53.705055 61.349667,53.433228 61.751453,53.042221 
z"/>
</svg>