<svg version="1.1" id="Layer_1" xmlns="http://www.w3.org/2000/svg" xmlns:xlink="http://www.w3.org/1999/xlink" x="0px" y="0px"
	 width="100%" viewBox="0 0 200 105" enable-background="new 0 0 200 105" xml:space="preserve">
<path fill="#454474" opacity="1.000000" stroke="none" 
	d="
M1.000000,58.000000 
	C1.000000,39.060867 1.000000,20.121737 1.000000,1.000000 
	C27.353947,1.000000 53.708313,1.000000 80.538628,1.437682 
	C81.062737,3.915305 81.110901,5.955246 81.125519,8.251633 
	C81.117241,8.678637 81.142509,8.849195 81.101791,9.463066 
	C81.084625,12.300904 81.133446,14.695432 81.131569,17.373997 
	C81.102821,18.040194 81.124771,18.422354 81.102234,19.258234 
	C81.098213,21.528671 81.138687,23.345387 81.127563,25.602882 
	C81.106522,28.427839 81.137085,30.812019 81.120728,33.446083 
	C81.105919,34.031719 81.138039,34.367474 81.117477,35.174141 
	C81.108543,37.539185 81.152298,39.433315 81.131851,41.738243 
	C81.114159,44.627213 81.160660,47.105385 81.162781,49.929924 
	C81.128014,50.509075 81.137627,50.741848 81.102264,51.393475 
	C81.087250,53.214561 81.117195,54.616798 81.102882,56.359680 
	C81.045456,56.928959 81.032295,57.157589 80.653000,57.573738 
	C53.857906,57.840839 27.428953,57.920418 1.000000,58.000000 
z"/>
<path fill="#F8ECED" opacity="1.000000" stroke="none" 
	d="
M1.000000,58.444164 
	C27.428953,57.920418 53.857906,57.840839 80.917450,57.555573 
	C81.711212,57.283230 81.874374,57.216572 82.492233,57.265274 
	C118.808975,57.397045 154.671036,57.420708 190.533081,57.417236 
	C193.677261,57.416931 196.821426,57.238693 200.238556,57.211136 
	C200.674332,57.186115 200.837173,57.093060 201.000000,57.000000 
	C201.000000,59.700016 201.000000,62.400028 200.542191,65.439575 
	C134.711899,65.762619 69.339417,65.744934 3.966930,65.740898 
	C2.977958,65.740837 1.988977,65.909874 1.000000,66.000000 
	C1.000000,63.629444 1.000000,61.258884 1.000000,58.444164 
z"/>
<path fill="#FEFCFC" opacity="1.000000" stroke="none" 
	d="
M201.000000,90.000000 
	C201.000000,92.370560 201.000000,94.741112 200.531448,97.545258 
	C133.708603,97.985901 67.354301,97.992950 1.000000,98.000000 
	C1.000000,95.629440 1.000000,93.258888 1.463669,90.369614 
	C67.291054,89.841232 132.654770,89.830788 198.018494,89.829338 
	C199.012329,89.829315 200.006165,89.940636 201.000000,90.000000 
z"/>
<path fill="#B32436" opacity="1.000000" stroke="none" 
	d="
M201.000000,89.555832 
	C200.006165,89.940636 199.012329,89.829315 198.018494,89.829338 
	C132.654770,89.830788 67.291054,89.841232 1.463669,89.925446 
	C1.000000,87.629440 1.000000,85.258888 1.465918,82.388885 
	C43.343376,81.882233 84.754921,81.858086 126.166451,81.874107 
	C151.110977,81.883766 176.055481,81.955925 201.000000,82.000000 
	C201.000000,84.370560 201.000000,86.741112 201.000000,89.555832 
z"/>
<path fill="#FBF5F6" opacity="1.000000" stroke="none" 
	d="
M201.000000,81.555832 
	C176.055481,81.955925 151.110977,81.883766 126.166451,81.874107 
	C84.754921,81.858086 43.343376,81.882233 1.465918,81.944725 
	C1.000000,79.629440 1.000000,77.258888 1.462955,74.363342 
	C67.457199,73.825768 132.988495,73.812431 198.519775,73.808853 
	C199.346512,73.808815 200.173264,73.933517 201.000000,74.000000 
	C201.000000,76.370560 201.000000,78.741112 201.000000,81.555832 
z"/>
<path fill="#B22234" opacity="1.000000" stroke="none" 
	d="
M201.000000,99.000000 
	C201.000000,101.327911 201.000000,103.655830 201.000000,105.987335 
	C134.333328,105.990929 67.666664,105.990929 1.000000,105.986389 
	C1.000000,103.986504 1.000000,101.991158 1.468657,99.497902 
	C68.291542,99.000000 134.645767,99.000000 201.000000,99.000000 
z"/>
<path fill="#B22335" opacity="1.000000" stroke="none" 
	d="
M1.000000,66.428467 
	C1.988977,65.909874 2.977958,65.740837 3.966930,65.740898 
	C69.339417,65.744934 134.711899,65.762619 200.542191,65.889557 
	C201.000000,67.714355 201.000000,69.428719 200.533173,71.618698 
	C162.314331,72.105293 124.562309,72.135429 86.810303,72.121025 
	C58.206856,72.110115 29.603434,72.042427 1.000000,72.000000 
	C1.000000,70.285645 1.000000,68.571281 1.000000,66.428467 
z"/>
<path fill="#F7E8E9" opacity="1.000000" stroke="none" 
	d="
M81.207153,49.583553 
	C81.160660,47.105385 81.114159,44.627213 81.584709,41.709503 
	C113.081398,41.264332 144.061050,41.276375 175.040649,41.241680 
	C183.693848,41.231991 192.346893,41.084354 201.000000,41.000000 
	C201.000000,43.700413 201.000000,46.400822 200.753601,49.419937 
	C200.326431,49.782093 200.145645,49.825539 199.509964,49.753891 
	C165.517044,49.622162 131.979019,49.592968 98.440987,49.601471 
	C92.971313,49.602859 87.501686,49.770798 81.836349,49.760979 
	C81.640663,49.660206 81.207153,49.583553 81.207153,49.583553 
z"/>
<path fill="#FBF5F6" opacity="1.000000" stroke="none" 
	d="
M81.167648,33.196198 
	C81.137085,30.812019 81.106522,28.427839 81.581909,25.591610 
	C121.725243,25.093040 161.362625,25.046520 201.000000,25.000000 
	C201.000000,27.370558 201.000000,29.741114 200.537140,32.637245 
	C160.438721,33.173946 120.803185,33.185070 81.167648,33.196198 
z"/>
<path fill="#FEFCFC" opacity="1.000000" stroke="none" 
	d="
M81.182266,17.089958 
	C81.133446,14.695432 81.084625,12.300904 81.556328,9.461012 
	C121.717903,9.010431 161.358948,9.005216 201.000000,9.000000 
	C201.000000,11.370557 201.000000,13.741115 200.536331,16.630379 
	C179.485962,17.158899 158.899231,17.144756 138.312592,17.185598 
	C119.557556,17.222805 100.802650,17.319675 81.843689,17.279566 
	C81.639687,17.168882 81.182266,17.089958 81.182266,17.089958 
z"/>
<path fill="#B32436" opacity="1.000000" stroke="none" 
	d="
M82.047684,17.390249 
	C100.802650,17.319675 119.557556,17.222805 138.312592,17.185598 
	C158.899231,17.144756 179.485962,17.158899 200.536331,17.074543 
	C201.000000,19.370558 201.000000,21.741116 201.000000,24.555836 
	C161.362625,25.046520 121.725243,25.093040 81.633514,25.150831 
	C81.138687,23.345387 81.098213,21.528671 81.296921,19.154860 
	C81.706635,18.195259 81.877159,17.792753 82.047684,17.390249 
z"/>
<path fill="#B22234" opacity="1.000000" stroke="none" 
	d="
M81.159065,7.995187 
	C81.110901,5.955246 81.062737,3.915305 81.007286,1.437682 
	C121.000000,1.000000 161.000000,1.000000 201.000000,1.000000 
	C201.000000,3.019860 201.000000,5.012025 200.531342,7.502111 
	C160.428146,7.998417 120.793602,7.996802 81.159065,7.995187 
z"/>
<path fill="#B22234" opacity="1.000000" stroke="none" 
	d="
M82.032036,49.861755 
	C87.501686,49.770798 92.971313,49.602859 98.440987,49.601471 
	C131.979019,49.592968 165.517044,49.622162 199.620102,49.994637 
	C200.456757,50.566986 200.728378,50.783497 201.000000,51.000004 
	C201.000000,52.388889 201.000000,53.777779 200.767303,55.712154 
	C200.344925,56.552795 200.155258,56.847950 199.965591,57.143105 
	C196.821426,57.238693 193.677261,57.416931 190.533081,57.417236 
	C154.671036,57.420708 118.808975,57.397045 82.399963,57.035534 
	C81.693619,56.386837 81.458328,56.163040 81.147141,56.019035 
	C81.117195,54.616798 81.087250,53.214561 81.305984,51.259163 
	C81.789047,50.467148 81.948166,50.185734 82.032036,49.861755 
z"/>
<path fill="#B32335" opacity="1.000000" stroke="none" 
	d="
M201.000000,40.571537 
	C192.346893,41.084354 183.693848,41.231991 175.040649,41.241680 
	C144.061050,41.276375 113.081398,41.264332 81.648911,41.298706 
	C81.152298,39.433315 81.108543,37.539185 81.569061,35.237633 
	C86.070808,34.844841 90.068291,34.867828 94.065788,34.872784 
	C129.710526,34.916996 165.355270,34.958031 201.000000,35.000000 
	C201.000000,36.714359 201.000000,38.428715 201.000000,40.571537 
z"/>
<path fill="#C04D5C" opacity="1.000000" stroke="none" 
	d="
M1.000000,72.333336 
	C29.603434,72.042427 58.206856,72.110115 86.810303,72.121025 
	C124.562309,72.135429 162.314331,72.105293 200.533173,72.047157 
	C201.000000,72.444443 201.000000,72.888893 201.000000,73.666672 
	C200.173264,73.933517 199.346512,73.808815 198.519775,73.808853 
	C132.988495,73.812431 67.457199,73.825768 1.462955,73.919182 
	C1.000000,73.555557 1.000000,73.111107 1.000000,72.333336 
z"/>
<path fill="#C04C5C" opacity="1.000000" stroke="none" 
	d="
M201.000000,34.666668 
	C165.355270,34.958031 129.710526,34.916996 94.065788,34.872784 
	C90.068291,34.867828 86.070808,34.844841 81.621735,34.766720 
	C81.138039,34.367474 81.105919,34.031719 81.120728,33.446083 
	C120.803185,33.185070 160.438721,33.173946 200.537140,33.081409 
	C201.000000,33.444447 201.000000,33.888889 201.000000,34.666668 
z"/>
<path fill="#B20E2A" opacity="1.000000" stroke="none" 
	d="
M201.000000,98.750000 
	C134.645767,99.000000 68.291542,99.000000 1.468657,99.000000 
	C1.000000,99.000000 1.000000,98.500000 1.000000,98.250000 
	C67.354301,97.992950 133.708603,97.985901 200.531448,97.989426 
	C201.000000,98.000000 201.000000,98.500000 201.000000,98.750000 
z"/>
<path fill="#B20E2A" opacity="1.000000" stroke="none" 
	d="
M81.125519,8.251633 
	C120.793602,7.996802 160.428146,7.998417 200.531342,8.000016 
	C201.000000,8.000000 201.000000,8.500000 201.000000,8.750000 
	C161.358948,9.005216 121.717903,9.010431 81.622314,9.017700 
	C81.142509,8.849195 81.117241,8.678637 81.125519,8.251633 
z"/>
<path fill="#AF1229" opacity="1.000000" stroke="none" 
	d="
M200.238556,57.211136 
	C200.155258,56.847950 200.344925,56.552795 200.767303,56.128822 
	C201.000000,56.000000 201.000000,56.500000 201.000000,56.750000 
	C200.837173,57.093060 200.674332,57.186115 200.238556,57.211136 
z"/>
<path fill="#AF1229" opacity="1.000000" stroke="none" 
	d="
M201.000000,50.750004 
	C200.728378,50.783497 200.456757,50.566986 200.074997,50.109726 
	C200.145645,49.825539 200.326431,49.782093 200.753601,49.869324 
	C201.000000,50.000000 201.000000,50.500000 201.000000,50.750004 
z"/>
<path fill="#BA3F4E" opacity="1.000000" stroke="none" 
	d="
M81.843689,17.279566 
	C81.877159,17.792753 81.706635,18.195259 81.341415,18.701138 
	C81.124771,18.422354 81.102821,18.040194 81.131569,17.373997 
	C81.182266,17.089958 81.639687,17.168882 81.843689,17.279566 
z"/>
<path fill="#AF1229" opacity="1.000000" stroke="none" 
	d="
M81.102882,56.359680 
	C81.458328,56.163040 81.693619,56.386837 81.945274,56.920174 
	C81.874374,57.216572 81.711212,57.283230 81.283600,57.368050 
	C81.032295,57.157589 81.045456,56.928959 81.102882,56.359680 
z"/>
<path fill="#AF1229" opacity="1.000000" stroke="none" 
	d="
M81.836349,49.760979 
	C81.948166,50.185734 81.789047,50.467148 81.350952,50.840309 
	C81.137627,50.741848 81.128014,50.509075 81.162781,49.929924 
	C81.207153,49.583553 81.640663,49.660206 81.836349,49.760979 
z"/>
</svg>