<svg version="1.1" id="Layer_1" xmlns="http://www.w3.org/2000/svg" xmlns:xlink="http://www.w3.org/1999/xlink" x="0px" y="0px"
	 width="100%" viewBox="0 0 225 224" enable-background="new 0 0 225 224" xml:space="preserve">
<path fill="#FEFEFE" opacity="1.000000" stroke="none" 
	d="
M158.000000,225.000000 
	C105.333336,225.000000 53.166672,225.000000 1.000007,225.000000 
	C1.000005,150.333344 1.000005,75.666679 1.000002,1.000017 
	C75.999992,1.000011 150.999985,1.000011 225.999969,1.000006 
	C225.999985,75.666649 225.999985,150.333298 226.000000,224.999969 
	C203.500000,225.000000 181.000000,225.000000 158.000000,225.000000 
M79.472076,206.044830 
	C89.929169,208.465607 100.269035,211.959808 110.864143,213.116974 
	C151.598877,217.565903 188.932785,196.350494 206.510132,159.543198 
	C212.840378,146.287506 215.279877,132.156387 216.122849,117.802544 
	C212.141647,125.418541 208.910126,133.476349 204.111404,140.456772 
	C182.898911,171.313477 154.528214,188.490021 115.956032,182.704758 
	C57.719582,173.970169 28.133410,107.204933 58.676868,56.110409 
	C69.113953,38.650772 82.600700,23.940681 102.890335,17.105913 
	C100.096954,17.112156 97.501999,17.478363 94.930008,17.965801 
	C57.221088,25.112322 21.558216,57.887615 17.558184,100.933525 
	C13.413723,145.533661 37.739601,188.320175 79.472076,206.044830 
z"/>
<path fill="#020202" opacity="1.000000" stroke="none" 
	d="
M79.098175,205.944260 
	C37.739601,188.320175 13.413723,145.533661 17.558184,100.933525 
	C21.558216,57.887615 57.221088,25.112322 94.930008,17.965801 
	C97.501999,17.478363 100.096954,17.112156 102.890335,17.105913 
	C82.600700,23.940681 69.113953,38.650772 58.676868,56.110409 
	C28.133410,107.204933 57.719582,173.970169 115.956032,182.704758 
	C154.528214,188.490021 182.898911,171.313477 204.111404,140.456772 
	C208.910126,133.476349 212.141647,125.418541 216.122849,117.802544 
	C215.279877,132.156387 212.840378,146.287506 206.510132,159.543198 
	C188.932785,196.350494 151.598877,217.565903 110.864143,213.116974 
	C100.269035,211.959808 89.929169,208.465607 79.098175,205.944260 
z"/>
</svg>