<svg version="1.1" id="Layer_1" xmlns="http://www.w3.org/2000/svg" xmlns:xlink="http://www.w3.org/1999/xlink" x="0px" y="0px"
	 width="100%" viewBox="0 0 225 225" enable-background="new 0 0 225 225" xml:space="preserve">
<path fill="#FCFCFC" opacity="1.000000" stroke="none" 
	d="
M1.000000,87.000000 
	C1.000000,58.000004 1.000000,29.500010 1.000000,1.000011 
	C75.999977,1.000008 150.999954,1.000008 225.999954,1.000004 
	C225.999969,75.999969 225.999969,150.999939 225.999985,225.999939 
	C151.000046,225.999954 76.000092,225.999954 1.000068,225.999969 
	C1.000000,179.833328 1.000000,133.666672 1.000000,87.000000 
M49.943802,91.601814 
	C45.550362,104.548424 45.156643,117.618652 48.582386,130.851532 
	C56.392609,161.020676 86.322670,185.032547 123.118172,179.995605 
	C153.492722,175.837631 179.029953,150.224823 180.676712,116.278229 
	C182.764359,73.242928 142.194824,38.471016 100.343857,47.645905 
	C75.839973,53.017826 59.346214,67.689987 49.943802,91.601814 
M209.100815,141.393631 
	C201.418854,136.636765 193.736893,131.879883 185.987930,127.081528 
	C183.975906,133.358856 182.142029,139.080399 180.207733,145.115234 
	C192.929382,146.031693 205.469727,146.935104 219.452805,147.942429 
	C215.438873,145.443985 212.553452,143.647980 209.100815,141.393631 
M32.078690,94.419739 
	C34.998207,96.212746 37.917721,98.005753 40.936668,99.859825 
	C42.944546,93.728943 44.825115,87.986786 46.830563,81.863335 
	C34.412659,80.980209 22.011175,80.098251 9.609689,79.216301 
	C9.508271,79.533096 9.406854,79.849892 9.305436,80.166687 
	C16.690065,84.789803 24.074696,89.412910 32.078690,94.419739 
M205.418106,87.938316 
	C209.359039,85.416756 213.299973,82.895187 217.240891,80.373627 
	C217.108215,79.997673 216.975540,79.621727 216.842850,79.245773 
	C204.610291,80.115097 192.377716,80.984413 180.176743,81.851486 
	C182.195023,88.121552 184.041916,93.859207 186.007843,99.966583 
	C192.438309,95.936424 198.592911,92.079163 205.418106,87.938316 
M83.088570,46.758389 
	C88.602371,44.812431 94.116173,42.866470 99.856277,40.840649 
	C93.296028,30.329067 86.846107,19.994270 80.396179,9.659471 
	C79.945496,9.861576 79.494804,10.063682 79.044113,10.265786 
	C80.121719,22.450813 81.199326,34.635838 83.088570,46.758389 
M44.434132,145.216736 
	C45.238716,145.103821 46.043297,144.990921 46.741421,144.892944 
	C44.829559,138.993393 42.965164,133.240311 40.946548,127.011337 
	C30.301270,133.687302 19.787872,140.280548 9.274475,146.873795 
	C9.462807,147.184601 9.651138,147.495407 9.839470,147.806213 
	C21.086582,146.962189 32.333694,146.118149 44.434132,145.216736 
M138.327606,204.174881 
	C141.094971,208.523895 143.862320,212.872910 146.629669,217.221939 
	C146.990158,217.081665 147.350632,216.941391 147.711121,216.801132 
	C146.843964,204.580612 145.976791,192.360092 145.109299,180.134689 
	C138.796173,182.207397 133.071259,184.086990 127.067772,186.058044 
	C130.806717,192.058151 134.385315,197.800949 138.327606,204.174881 
M96.444366,184.908646 
	C91.690742,183.356094 86.937111,181.803543 81.844681,180.140350 
	C80.959419,192.755569 80.098053,205.030396 79.236687,217.305222 
	C86.494949,207.530197 92.853897,197.377304 99.076241,187.141373 
	C99.227379,186.892746 97.857849,185.719711 96.444366,184.908646 
M54.055889,60.372704 
	C44.632519,56.589005 35.209148,52.805309 25.785776,49.021610 
	C25.530130,49.357960 25.274483,49.694305 25.018835,50.030651 
	C32.897747,59.388203 40.776661,68.745758 48.702873,78.159477 
	C52.605106,72.826683 56.164371,67.962585 59.906345,62.848793 
	C58.032944,62.102299 56.365696,61.437946 54.055889,60.372704 
M192.984863,121.343544 
	C203.242081,118.836929 213.499298,116.330315 225.004669,113.518677 
	C211.381897,110.126404 199.017899,107.047577 186.642181,103.965836 
	C186.642181,110.661247 186.642181,116.708748 186.642181,122.905922 
	C188.700455,122.444290 190.467056,122.048073 192.984863,121.343544 
M144.539734,12.923903 
	C138.726089,22.262758 132.912445,31.601612 127.068527,40.989109 
	C133.400330,43.024261 139.113052,44.860432 145.142838,46.798508 
	C146.007294,34.427406 146.855865,22.283644 147.810776,8.617865 
	C146.239548,10.660159 145.605179,11.484705 144.539734,12.923903 
M58.454105,194.955505 
	C64.978760,189.422379 71.503410,183.889267 78.102356,178.293152 
	C72.932945,174.485947 68.059731,170.896881 62.788918,167.014999 
	C58.158550,178.520981 53.554867,189.960663 48.951180,201.400345 
	C49.255150,201.583466 49.559120,201.766602 49.863091,201.949722 
	C52.537251,199.758881 55.211407,197.568039 58.454105,194.955505 
M156.428589,54.026550 
	C158.859879,55.955299 161.291168,57.884048 164.128036,60.134537 
	C168.845947,48.430073 173.448395,37.012054 178.050827,25.594034 
	C177.705032,25.385757 177.359238,25.177483 177.013428,24.969208 
	C167.663971,32.828915 158.314499,40.688622 148.633850,48.826744 
	C151.234009,50.551899 153.539856,52.081787 156.428589,54.026550 
M122.079689,189.902191 
	C122.321159,188.845154 122.562630,187.788116 122.827545,186.628479 
	C116.429115,186.628479 110.381378,186.628479 103.986305,186.628479 
	C107.091904,199.141373 110.140213,211.423447 113.481339,224.885315 
	C116.510544,212.706390 119.247849,201.701050 122.079689,189.902191 
M199.449265,173.974335 
	C192.443954,165.632111 185.438644,157.289886 178.298401,148.786957 
	C174.545334,153.967041 170.948410,158.931641 167.092621,164.253494 
	C178.741974,168.932465 190.085297,173.488525 202.627045,178.525940 
	C201.192184,176.380951 200.558289,175.433350 199.449265,173.974335 
M36.295139,121.988815 
	C37.657871,122.222771 39.020603,122.456726 40.326256,122.680878 
	C40.326256,116.234055 40.326256,110.208160 40.326256,103.926788 
	C27.769033,107.074158 15.547747,110.137329 2.198615,113.483185 
	C14.085152,116.483620 24.794916,119.187004 36.295139,121.988815 
M189.921936,64.423897 
	C193.808090,59.697235 197.694244,54.970573 201.580399,50.243912 
	C201.253265,49.901806 200.926147,49.559700 200.599030,49.217598 
	C189.407791,53.747860 178.216553,58.278122 167.061325,62.793808 
	C171.025909,68.212936 174.612259,73.115082 178.282364,78.131706 
	C182.138870,73.579407 185.793625,69.265236 189.921936,64.423897 
M75.775597,46.739735 
	C67.280968,39.595104 58.786335,32.450474 50.291702,25.305845 
	C49.915794,25.629400 49.539886,25.952955 49.163979,26.276510 
	C53.719772,37.508518 58.275566,48.740524 62.788685,59.867313 
	C67.581978,56.465260 71.709206,53.404991 75.983215,50.565651 
	C77.740669,49.398125 78.663826,48.573124 75.775597,46.739735 
M110.221397,14.791819 
	C108.188515,23.242115 106.155640,31.692413 104.103180,40.224098 
	C110.503395,40.224098 116.621231,40.224098 122.963181,40.224098 
	C119.845329,27.707748 116.821663,15.569490 113.490738,2.197793 
	C112.295006,7.016657 111.424408,10.525199 110.221397,14.791819 
M50.088646,150.438019 
	C49.058266,150.530792 47.564709,150.216888 47.070164,150.780136 
	C42.791264,155.653427 38.688099,160.681213 34.540688,165.669708 
	C31.431322,169.409637 28.333895,173.159500 25.231152,176.904953 
	C25.492504,177.234924 25.753855,177.564896 26.015207,177.894882 
	C37.304855,173.322418 48.594505,168.749954 59.823009,164.202240 
	C56.423294,159.405746 53.454971,155.217880 50.088646,150.438019 
M175.786255,195.657272 
	C171.901199,186.135284 168.016144,176.613312 164.132904,167.095779 
	C158.689392,171.091370 153.839355,174.651367 148.825363,178.331696 
	C158.413910,186.369003 167.655121,194.115143 177.081772,202.016739 
	C177.389969,201.111679 177.646240,200.762436 177.566406,200.527313 
	C177.090012,199.124283 176.536072,197.747574 175.786255,195.657272 
z"/>
<path fill="#010101" opacity="1.000000" stroke="none" 
	d="
M50.035511,91.215431 
	C59.346214,67.689987 75.839973,53.017826 100.343857,47.645905 
	C142.194824,38.471016 182.764359,73.242928 180.676712,116.278229 
	C179.029953,150.224823 153.492722,175.837631 123.118172,179.995605 
	C86.322670,185.032547 56.392609,161.020676 48.582386,130.851532 
	C45.156643,117.618652 45.550362,104.548424 50.035511,91.215431 
z"/>
<path fill="#060606" opacity="1.000000" stroke="none" 
	d="
M209.384415,141.622803 
	C212.553452,143.647980 215.438873,145.443985 219.452805,147.942429 
	C205.469727,146.935104 192.929382,146.031693 180.207733,145.115234 
	C182.142029,139.080399 183.975906,133.358856 185.987930,127.081528 
	C193.736893,131.879883 201.418854,136.636765 209.384415,141.622803 
z"/>
<path fill="#060606" opacity="1.000000" stroke="none" 
	d="
M31.769009,94.227882 
	C24.074696,89.412910 16.690065,84.789803 9.305436,80.166687 
	C9.406854,79.849892 9.508271,79.533096 9.609689,79.216301 
	C22.011175,80.098251 34.412659,80.980209 46.830563,81.863335 
	C44.825115,87.986786 42.944546,93.728943 40.936668,99.859825 
	C37.917721,98.005753 34.998207,96.212746 31.769009,94.227882 
z"/>
<path fill="#060606" opacity="1.000000" stroke="none" 
	d="
M205.082809,88.080109 
	C198.592911,92.079163 192.438309,95.936424 186.007843,99.966583 
	C184.041916,93.859207 182.195023,88.121552 180.176743,81.851486 
	C192.377716,80.984413 204.610291,80.115097 216.842850,79.245773 
	C216.975540,79.621727 217.108215,79.997673 217.240891,80.373627 
	C213.299973,82.895187 209.359039,85.416756 205.082809,88.080109 
z"/>
<path fill="#050505" opacity="1.000000" stroke="none" 
	d="
M82.682755,46.789627 
	C81.199326,34.635838 80.121719,22.450813 79.044113,10.265786 
	C79.494804,10.063682 79.945496,9.861576 80.396179,9.659471 
	C86.846107,19.994270 93.296028,30.329067 99.856277,40.840649 
	C94.116173,42.866470 88.602371,44.812431 82.682755,46.789627 
z"/>
<path fill="#060606" opacity="1.000000" stroke="none" 
	d="
M44.007469,145.245422 
	C32.333694,146.118149 21.086582,146.962189 9.839470,147.806213 
	C9.651138,147.495407 9.462807,147.184601 9.274475,146.873795 
	C19.787872,140.280548 30.301270,133.687302 40.946548,127.011337 
	C42.965164,133.240311 44.829559,138.993393 46.741421,144.892944 
	C46.043297,144.990921 45.238716,145.103821 44.007469,145.245422 
z"/>
<path fill="#060606" opacity="1.000000" stroke="none" 
	d="
M138.145767,203.859314 
	C134.385315,197.800949 130.806717,192.058151 127.067772,186.058044 
	C133.071259,184.086990 138.796173,182.207397 145.109299,180.134689 
	C145.976791,192.360092 146.843964,204.580612 147.711121,216.801132 
	C147.350632,216.941391 146.990158,217.081665 146.629669,217.221939 
	C143.862320,212.872910 141.094971,208.523895 138.145767,203.859314 
z"/>
<path fill="#050505" opacity="1.000000" stroke="none" 
	d="
M96.820969,184.943237 
	C97.857849,185.719711 99.227379,186.892746 99.076241,187.141373 
	C92.853897,197.377304 86.494949,207.530197 79.236687,217.305222 
	C80.098053,205.030396 80.959419,192.755569 81.844681,180.140350 
	C86.937111,181.803543 91.690742,183.356094 96.820969,184.943237 
z"/>
<path fill="#060606" opacity="1.000000" stroke="none" 
	d="
M54.377167,60.573151 
	C56.365696,61.437946 58.032944,62.102299 59.906345,62.848793 
	C56.164371,67.962585 52.605106,72.826683 48.702873,78.159477 
	C40.776661,68.745758 32.897747,59.388203 25.018835,50.030651 
	C25.274483,49.694305 25.530130,49.357960 25.785776,49.021610 
	C35.209148,52.805309 44.632519,56.589005 54.377167,60.573151 
z"/>
<path fill="#060606" opacity="1.000000" stroke="none" 
	d="
M192.609253,121.497696 
	C190.467056,122.048073 188.700455,122.444290 186.642181,122.905922 
	C186.642181,116.708748 186.642181,110.661247 186.642181,103.965836 
	C199.017899,107.047577 211.381897,110.126404 225.004669,113.518677 
	C213.499298,116.330315 203.242081,118.836929 192.609253,121.497696 
z"/>
<path fill="#050505" opacity="1.000000" stroke="none" 
	d="
M144.755280,12.616577 
	C145.605179,11.484705 146.239548,10.660159 147.810776,8.617865 
	C146.855865,22.283644 146.007294,34.427406 145.142838,46.798508 
	C139.113052,44.860432 133.400330,43.024261 127.068527,40.989109 
	C132.912445,31.601612 138.726089,22.262758 144.755280,12.616577 
z"/>
<path fill="#050505" opacity="1.000000" stroke="none" 
	d="
M58.169838,195.166351 
	C55.211407,197.568039 52.537251,199.758881 49.863091,201.949722 
	C49.559120,201.766602 49.255150,201.583466 48.951180,201.400345 
	C53.554867,189.960663 58.158550,178.520981 62.788918,167.014999 
	C68.059731,170.896881 72.932945,174.485947 78.102356,178.293152 
	C71.503410,183.889267 64.978760,189.422379 58.169838,195.166351 
z"/>
<path fill="#060606" opacity="1.000000" stroke="none" 
	d="
M156.137146,53.819115 
	C153.539856,52.081787 151.234009,50.551899 148.633850,48.826744 
	C158.314499,40.688622 167.663971,32.828915 177.013428,24.969208 
	C177.359238,25.177483 177.705032,25.385757 178.050827,25.594034 
	C173.448395,37.012054 168.845947,48.430073 164.128036,60.134537 
	C161.291168,57.884048 158.859879,55.955299 156.137146,53.819115 
z"/>
<path fill="#050505" opacity="1.000000" stroke="none" 
	d="
M122.032425,190.298950 
	C119.247849,201.701050 116.510544,212.706390 113.481339,224.885315 
	C110.140213,211.423447 107.091904,199.141373 103.986305,186.628479 
	C110.381378,186.628479 116.429115,186.628479 122.827545,186.628479 
	C122.562630,187.788116 122.321159,188.845154 122.032425,190.298950 
z"/>
<path fill="#050505" opacity="1.000000" stroke="none" 
	d="
M199.686829,174.230042 
	C200.558289,175.433350 201.192184,176.380951 202.627045,178.525940 
	C190.085297,173.488525 178.741974,168.932465 167.092621,164.253494 
	C170.948410,158.931641 174.545334,153.967041 178.298401,148.786957 
	C185.438644,157.289886 192.443954,165.632111 199.686829,174.230042 
z"/>
<path fill="#060606" opacity="1.000000" stroke="none" 
	d="
M35.899910,121.939606 
	C24.794916,119.187004 14.085152,116.483620 2.198615,113.483185 
	C15.547747,110.137329 27.769033,107.074158 40.326256,103.926788 
	C40.326256,110.208160 40.326256,116.234055 40.326256,122.680878 
	C39.020603,122.456726 37.657871,122.222771 35.899910,121.939606 
z"/>
<path fill="#050505" opacity="1.000000" stroke="none" 
	d="
M189.685150,64.687485 
	C185.793625,69.265236 182.138870,73.579407 178.282364,78.131706 
	C174.612259,73.115082 171.025909,68.212936 167.061325,62.793808 
	C178.216553,58.278122 189.407791,53.747860 200.599030,49.217598 
	C200.926147,49.559700 201.253265,49.901806 201.580399,50.243912 
	C197.694244,54.970573 193.808090,59.697235 189.685150,64.687485 
z"/>
<path fill="#050505" opacity="1.000000" stroke="none" 
	d="
M76.059143,46.956169 
	C78.663826,48.573124 77.740669,49.398125 75.983215,50.565651 
	C71.709206,53.404991 67.581978,56.465260 62.788685,59.867313 
	C58.275566,48.740524 53.719772,37.508518 49.163979,26.276510 
	C49.539886,25.952955 49.915794,25.629400 50.291702,25.305845 
	C58.786335,32.450474 67.280968,39.595104 76.059143,46.956169 
z"/>
<path fill="#050505" opacity="1.000000" stroke="none" 
	d="
M110.387604,14.412779 
	C111.424408,10.525199 112.295006,7.016657 113.490738,2.197793 
	C116.821663,15.569490 119.845329,27.707748 122.963181,40.224098 
	C116.621231,40.224098 110.503395,40.224098 104.103180,40.224098 
	C106.155640,31.692413 108.188515,23.242115 110.387604,14.412779 
z"/>
<path fill="#050505" opacity="1.000000" stroke="none" 
	d="
M50.287647,150.734024 
	C53.454971,155.217880 56.423294,159.405746 59.823009,164.202240 
	C48.594505,168.749954 37.304855,173.322418 26.015207,177.894882 
	C25.753855,177.564896 25.492504,177.234924 25.231152,176.904953 
	C28.333895,173.159500 31.431322,169.409637 34.540688,165.669708 
	C38.688099,160.681213 42.791264,155.653427 47.070164,150.780136 
	C47.564709,150.216888 49.058266,150.530792 50.287647,150.734024 
z"/>
<path fill="#060606" opacity="1.000000" stroke="none" 
	d="
M175.897217,196.009644 
	C176.536072,197.747574 177.090012,199.124283 177.566406,200.527313 
	C177.646240,200.762436 177.389969,201.111679 177.081772,202.016739 
	C167.655121,194.115143 158.413910,186.369003 148.825363,178.331696 
	C153.839355,174.651367 158.689392,171.091370 164.132904,167.095779 
	C168.016144,176.613312 171.901199,186.135284 175.897217,196.009644 
z"/>
</svg>